<svg width="88" height="12" viewBox="0 0 88 12" fill="none" xmlns="http://www.w3.org/2000/svg">
<g clip-path="url(#clip0_45_56)">
<path d="M56.0812 8.2099V11.6912H54.1658C54.1658 11.5384 54.1658 11.366 54.1658 11.1935C54.1658 9.79338 54.1704 8.39324 54.1634 6.99309C54.1564 5.66606 53.3375 4.85959 52.0055 4.85522C50.6266 4.85086 49.7211 5.70208 49.7164 7.01819C49.7105 8.56239 49.7152 10.1066 49.7152 11.6923H47.8736V0.293564H49.7V4.65442C50.9148 3.30339 52.3698 2.99345 53.9959 3.54129C55.4568 4.03347 56.0074 5.15751 56.0753 6.5653" fill="white"/>
<path d="M56.0741 6.5653H58.9829C58.6034 6.24882 58.2636 5.98036 57.9426 5.69443C57.4366 5.24372 57.4776 5.04729 58.1406 4.39796C58.5389 4.00727 58.826 4.25391 59.1282 4.51146C60.0771 5.3223 61.0354 6.12332 61.975 6.94289C62.4096 7.32266 62.4143 7.62386 61.9726 7.99709C60.9921 8.82757 59.9846 9.63187 58.997 10.4569C58.6819 10.7199 58.4159 10.709 58.1547 10.4056C58.0692 10.3063 57.9919 10.1993 57.8958 10.1099C57.4893 9.72899 57.5244 9.40815 57.9977 9.0884C58.3679 8.83849 58.7006 8.54165 59.1235 8.2088H56.0835" fill="#EE6A32"/>
<path d="M15.622 11.7053H13.8496V10.6053C13.6715 10.7843 13.5742 10.8792 13.4805 10.9764C12.4145 12.0786 10.3268 12.3372 8.98194 11.5253C8.1408 11.0167 7.75655 10.2725 7.8081 9.35249C7.85847 8.44452 8.39619 7.76573 9.28536 7.50382C10.2355 7.22335 11.2488 7.11749 12.2422 6.98436C12.7155 6.92106 13.2064 6.97344 13.6762 6.97344C13.8683 5.85049 13.4173 5.09094 12.4765 4.8705C11.2359 4.58021 10.3526 4.9829 9.95078 6.03601H8.04123C8.22398 4.63041 9.14361 3.6526 10.724 3.38523C12.1802 3.13859 13.6059 3.26082 14.7551 4.29974C15.2811 4.77446 15.5974 5.36704 15.6092 6.0371C15.642 7.90651 15.6209 9.77701 15.6209 11.7064L15.622 11.7053ZM13.6984 8.06038C13.429 8.08439 13.1595 8.09967 12.8924 8.13459C12.1075 8.23827 11.3121 8.30156 10.5459 8.47508C10.0422 8.58967 9.7528 8.97708 9.76802 9.50091C9.78325 9.99199 10.0445 10.3565 10.5377 10.4809C12.3289 10.9327 14.1131 9.87959 13.6984 8.06147V8.06038Z" fill="white"/>
<path d="M35.6712 11.7141H33.7874C33.7874 11.3779 33.7874 11.056 33.7874 10.7352C33.7874 9.40814 33.7956 8.08111 33.7839 6.75409C33.7745 5.59621 33.0587 4.9447 31.7619 4.8825C30.5084 4.82248 29.536 5.48708 29.4517 6.56856C29.3662 7.65332 29.3919 8.74681 29.3755 9.83593C29.3673 10.4503 29.3744 11.0647 29.3744 11.7043H27.5117V3.49872H29.2935V4.86394C29.5313 4.58348 29.6637 4.39359 29.8312 4.23644C30.8961 3.22808 32.1907 3.09385 33.5543 3.50745C34.85 3.90032 35.5974 4.81702 35.6501 6.06329C35.7298 7.93161 35.6712 9.80429 35.6712 11.7152V11.7141Z" fill="white"/>
<path d="M25.4451 11.713H23.7207V10.5322C23.1607 11.1979 22.5292 11.6781 21.6588 11.8865C19.5232 12.3983 17.4531 11.0484 17.3828 9.00109C17.3207 7.17316 17.3699 5.34194 17.3699 3.48672H19.2233C19.2338 3.66788 19.2525 3.8414 19.2525 4.01601C19.2549 5.46963 19.249 6.92325 19.2549 8.37578C19.2607 9.66352 20.0199 10.4394 21.2558 10.4394C22.6487 10.4394 23.5871 9.59476 23.593 8.31794C23.6012 6.72245 23.5953 5.12587 23.5953 3.49764H25.444V11.713H25.4451Z" fill="white"/>
<path d="M46.1948 6.29683C45.602 6.29683 45.0573 6.31211 44.5137 6.28592C44.3731 6.27937 44.1775 6.17352 44.1142 6.06111C43.4816 4.94143 42.1719 4.68607 41.0999 4.90105C39.9284 5.13678 39.1365 6.0251 38.9514 7.21353C38.6234 9.30993 40.5142 10.9065 42.6182 10.3052C43.2813 10.1153 43.7546 9.71153 44.1119 9.15824C44.2056 9.01309 44.4458 8.87886 44.6285 8.86577C45.1697 8.82757 45.7157 8.85158 46.2651 8.85158C45.8117 10.8607 43.6058 12.1724 41.1105 11.9378C38.8096 11.7228 37.0899 9.95271 37.0371 7.745C36.9833 5.47071 38.662 3.62968 41.0589 3.33612C43.4535 3.04256 45.6419 4.27464 46.1936 6.29574L46.1948 6.29683Z" fill="white"/>
<path d="M69.7057 11.7348C70.7999 10.2812 71.825 8.91924 72.8688 7.53328C71.8613 6.20189 70.8585 4.87595 69.7948 3.47144C70.5457 3.47144 71.1994 3.45289 71.8496 3.48563C71.9996 3.49327 72.1765 3.64714 72.2784 3.77701C72.8735 4.53328 73.4499 5.30156 74.0755 6.12113C74.6226 5.32339 75.1462 4.59003 75.6336 3.83594C75.8187 3.55002 76.0319 3.4398 76.3868 3.45835C76.9035 3.48563 77.4225 3.4649 78.0398 3.4649C77.0464 4.85631 76.1033 6.17679 75.1533 7.50927C76.1479 8.90287 77.1343 10.2845 78.1711 11.737C77.4728 11.737 76.8554 11.7566 76.2428 11.7228C76.094 11.7141 75.9253 11.5471 75.8198 11.4151C75.2083 10.6446 74.6144 9.86322 73.9677 9.02619C73.3327 9.85449 72.7411 10.6522 72.1132 11.4238C71.9878 11.5777 71.7289 11.7053 71.5204 11.7206C70.9593 11.761 70.3934 11.7348 69.7069 11.7348H69.7057Z" fill="white"/>
<path d="M0 0.297928H1.96696V10.0564H6.92126V11.7021H0V0.297928Z" fill="white"/>
<path d="M62.8525 1.90214V5.10403H68.0024V6.7028C66.4092 6.7028 64.8522 6.70716 63.2953 6.69406C63.1653 6.69297 63.0071 6.59257 62.9111 6.49654C62.2738 5.85812 61.647 5.21098 61.0249 4.55947C60.9406 4.47107 60.8504 4.34448 60.8492 4.23535C60.8375 2.93124 60.841 1.62713 60.841 0.296829H68.6467V1.90214H62.8513H62.8525Z" fill="white"/>
<path d="M82.3123 3.51182H84.0204V1.60858C84.66 1.52564 85.2481 1.44816 85.8842 1.36522V3.49436H87.9824V5.04292H85.9182C85.9182 6.50963 85.8924 7.9196 85.9323 9.32848C85.9452 9.80429 86.3165 10.1175 86.8308 10.1982C87.208 10.2572 87.5958 10.2561 88.0011 10.2845V11.8614C87.2034 11.809 86.4161 11.8483 85.6781 11.6879C84.7057 11.4773 84.0532 10.5147 84.0438 9.47362C84.0297 8.02437 84.0403 6.57402 84.0403 5.06147H82.3135V3.51291L82.3123 3.51182Z" fill="white"/>
<path d="M80.9944 11.7141H79.1692V3.49654H80.9944V11.7141Z" fill="white"/>
<path d="M68.6549 11.7119H60.9113C60.6805 10.4733 61.3447 9.42343 62.795 8.78284V10.0313H68.6549V11.7119Z" fill="white"/>
<path d="M81.3447 1.14914C81.3283 1.75264 80.732 2.25682 80.0665 2.23172C79.4292 2.2088 78.8821 1.68279 78.8903 1.10222C78.8986 0.471442 79.4562 -0.0185542 80.1439 0.00108932C80.8444 0.0218241 81.3634 0.517277 81.3458 1.14914H81.3447Z" fill="white"/>
</g>
<defs>
<clipPath id="clip0_45_56">
<rect width="88" height="12" fill="white"/>
</clipPath>
</defs>
</svg>
